<?xml version="1.0" encoding="UTF-8" standalone="no"?>
<svg
   xmlns:dc="http://purl.org/dc/elements/1.1/"
   xmlns:cc="http://creativecommons.org/ns#"
   xmlns:rdf="http://www.w3.org/1999/02/22-rdf-syntax-ns#"
   xmlns:svg="http://www.w3.org/2000/svg"
   xmlns="http://www.w3.org/2000/svg"
   id="svg43"
   version="1.1"
   viewBox="0 0 110.85124 128.00003"
   height="128.00002mm"
   width="110.85125mm">
  <defs
     id="defs37" />
  <metadata
     id="metadata40">
    <rdf:RDF>
      <cc:Work
         rdf:about="">
        <dc:format>image/svg+xml</dc:format>
        <dc:type
           rdf:resource="http://purl.org/dc/dcmitype/StillImage" />
        <dc:title></dc:title>
      </cc:Work>
    </rdf:RDF>
  </metadata>
  <g
     style="display:inline"
     transform="translate(-27.712819,-79.999964)"
     id="layer1">
    <path
       id="path248"
       d="m 27.712821,175.99997 v -8 l 6.92821,-4 v -8 l 6.9282,-4 v -8 l 6.9282,-4 v -8 l 6.9282,-4 v -8 l 6.92821,-4 v -8 l 6.9282,-4.00001 v -7.999996 l 6.928203,-4 v -8 l 6.928205,-4 55.425621,32.000006 v 64 l -55.425624,32 z"
       style="fill:#008000;stroke:none;stroke-width:0.264583px;stroke-linecap:butt;stroke-linejoin:miter;stroke-opacity:1" />
  </g>
  <g
     transform="translate(-0.132292,-0.152748)"
     style="display:inline"
     id="layer2">
    <path
       id="path191"
       d="m 138.56407,111.99998 v 64 l -55.42563,32 v -8 l 6.928205,-4 v -8 l 6.928202,-4 v -8 l 6.928203,-4 v -8 l 6.9282,-4 v -8 l 6.92821,-4 v -8 l 6.9282,-4 v -8 l 6.9282,-4 v -8 z"
       style="display:inline;fill:#008000;stroke:none;stroke-width:0.264583px;stroke-linecap:butt;stroke-linejoin:miter;stroke-opacity:1"
       transform="translate(-27.580526,-79.847215)" />
    <path
       id="path193"
       d="m 83.138442,199.99998 -55.425624,-32 v 8 l 55.425624,32 z"
       style="display:inline;fill:#803300;stroke:none;stroke-width:0.264583px;stroke-linecap:butt;stroke-linejoin:miter;stroke-opacity:1"
       transform="translate(-27.580526,-79.847215)" />
    <path
       id="path197"
       d="m 90.066645,187.99998 -55.425626,-32 v 8 l 55.425626,32"
       style="display:inline;fill:#803300;stroke:none;stroke-width:0.264583px;stroke-linecap:butt;stroke-linejoin:miter;stroke-opacity:1"
       transform="translate(-27.580526,-79.847215)" />
    <path
       id="path205"
       d="m 96.994847,175.99998 -55.425625,-32 v 8 l 55.425625,32 z"
       style="display:inline;fill:#803300;stroke:none;stroke-width:0.264583px;stroke-linecap:butt;stroke-linejoin:miter;stroke-opacity:1"
       transform="translate(-27.580526,-79.847215)" />
    <path
       style="display:inline;fill:#803300;stroke:none;stroke-width:0.264583px;stroke-linecap:butt;stroke-linejoin:miter;stroke-opacity:1"
       d="m 103.92305,163.99998 -55.425624,-32 v 8 l 55.425624,32 z"
       id="path193-2"
       transform="translate(-27.580526,-79.847215)" />
    <path
       style="display:inline;fill:#803300;stroke:none;stroke-width:0.264583px;stroke-linecap:butt;stroke-linejoin:miter;stroke-opacity:1"
       d="m 110.85125,151.99998 -55.425621,-32 v 8 l 55.425621,32 z"
       id="path193-3"
       transform="translate(-27.580526,-79.847215)" />
    <path
       style="display:inline;fill:#803300;stroke:none;stroke-width:0.264583px;stroke-linecap:butt;stroke-linejoin:miter;stroke-opacity:1"
       d="m 117.77946,139.99998 -55.425632,-32 v 8 l 55.425632,32 z"
       id="path193-0"
       transform="translate(-27.580526,-79.847215)" />
    <path
       style="display:inline;fill:#803300;stroke:none;stroke-width:0.264583px;stroke-linecap:butt;stroke-linejoin:miter;stroke-opacity:1"
       d="m 124.70766,127.99998 -55.425619,-32 v 8 l 55.425619,32 z"
       id="path193-4"
       transform="translate(-27.580526,-79.847215)" />
    <path
       style="display:inline;fill:#803300;stroke:none;stroke-width:0.264583px;stroke-linecap:butt;stroke-linejoin:miter;stroke-opacity:1"
       d="m 131.63586,115.99998 -55.425626,-32 v 8 l 55.425626,32 z"
       id="path193-6"
       transform="translate(-27.580526,-79.847215)" />
  </g>
</svg>
