<?xml version="1.0" encoding="UTF-8" standalone="no"?>
<svg
   xmlns:osb="http://www.openswatchbook.org/uri/2009/osb"
   xmlns:dc="http://purl.org/dc/elements/1.1/"
   xmlns:cc="http://creativecommons.org/ns#"
   xmlns:rdf="http://www.w3.org/1999/02/22-rdf-syntax-ns#"
   xmlns:svg="http://www.w3.org/2000/svg"
   xmlns="http://www.w3.org/2000/svg"
   id="svg8"
   version="1.1"
   viewBox="0 0 111.38042 80.381889"
   height="80.381889mm"
   width="111.38042mm">
  <defs
     id="defs2">
    <linearGradient
       osb:paint="solid"
       id="linearGradient2803">
      <stop
         id="stop2801"
         offset="0"
         style="stop-color:#000000;stop-opacity:1;" />
    </linearGradient>
  </defs>
  <metadata
     id="metadata5">
    <rdf:RDF>
      <cc:Work
         rdf:about="">
        <dc:format>image/svg+xml</dc:format>
        <dc:type
           rdf:resource="http://purl.org/dc/dcmitype/StillImage" />
        <dc:title></dc:title>
      </cc:Work>
    </rdf:RDF>
  </metadata>
  <g
     transform="translate(-20.520028,-115.84724)"
     id="layer1">
    <path
       style="fill:#eeecf1;fill-opacity:1;stroke:#000000;stroke-width:0.264583px;stroke-linecap:butt;stroke-linejoin:miter;stroke-opacity:1"
       d="m 20.784611,148 55.425629,-32 55.42562,32 -55.42562,32 z"
       id="path12-6" />
    <path
       id="path2858"
       d="m 69.282033,80 c 6.928203,-4 6.928203,-4 6.928203,-4 l 6.928203,4 13.856406,-8 -6.928201,-4 6.928201,-4 6.928205,4 6.9282,4 -6.9282,4 13.85641,8 -6.92821,4 -6.9282,-4 -6.928205,4 6.928205,4 6.9282,4 -6.9282,4 -34.641017,-20"
       style="fill:#c5edf4;fill-opacity:1;stroke:none;stroke-width:0.264583px;stroke-linecap:butt;stroke-linejoin:miter;stroke-opacity:1" />
    <path
       id="path2860"
       d="m 159.34867,60 -20.7846,-12 -6.92821,4 6.92821,4 6.9282,4 -6.9282,4 -6.92821,4.000003 6.92821,4 6.9282,-4 c 0,0 -1.29751,0.74912 6.9282,-4.000003 z"
       style="fill:#c5edf4;fill-opacity:1;stroke:none;stroke-width:0.264583px;stroke-linecap:butt;stroke-linejoin:miter;stroke-opacity:1" />
    <path
       id="path2862"
       d="m 20.78461,148 v 16 l 55.425625,32 V 180 L 20.78461,148"
       style="fill:#cfc2d6;fill-opacity:1;stroke:#000000;stroke-width:0.264583px;stroke-linecap:butt;stroke-linejoin:miter;stroke-opacity:1" />
    <path
       id="path2864"
       d="m 131.63586,148 v 16 l -55.425625,32 v -16 z"
       style="fill:#d3c2d6;fill-opacity:1;stroke:#000000;stroke-width:0.264583px;stroke-linecap:butt;stroke-linejoin:miter;stroke-opacity:1" />
  </g>
</svg>
